<svg width="0" height="0" class="hidden">
  <symbol xmlns="http://www.w3.org/2000/svg" viewBox="0 0 60.541 53.584" id="techdevelopment">
    <path d="M43.81 6.075a1.262 1.262 0 00-1.261 1.262 1.261 1.261 0 001.261 1.261 1.261 1.261 0 001.262-1.261 1.262 1.262 0 00-1.262-1.262zm8.354 0a1.262 1.262 0 00-1.262 1.262 1.261 1.261 0 001.262 1.261 1.261 1.261 0 001.262-1.261 1.262 1.262 0 00-1.262-1.262zm7.377 6.618H1" fill="none" stroke="#ff5246" stroke-linecap="round" stroke-linejoin="round" stroke-width="2"></path>
    <path d="M1 1h58.541v51.584H1zm32.236 20.683l-4.88 22.826" fill="none" stroke="#ff5246" stroke-linecap="round" stroke-linejoin="round" stroke-width="2"></path>
    <path d="M38.907 25.429l9.41 7.667-9.41 7.667M21.634 25.429l-9.41 7.667 9.41 7.667" fill="none" stroke="#ff5246" stroke-linecap="round" stroke-linejoin="round" stroke-width="2"></path>
  </symbol>
  <symbol xmlns="http://www.w3.org/2000/svg" viewBox="0 0 92 92" id="mobile-devices">
    <g transform="translate(-407 -1895)">
      <circle cx="46" cy="46" r="46" transform="translate(407 1895)" fill="#da3467"></circle>
      <path d="M467.58 1907.43h-30.031a4.563 4.563 0 00-4.549 4.549v58.258a4.564 4.564 0 004.549 4.552h30.031a4.561 4.561 0 004.549-4.549v-58.261a4.563 4.563 0 00-4.549-4.549zm-.314 56.07h-29.4v-46.356h29.4z" stroke-miterlimit="10" stroke="#fff" fill="none" stroke-width="2.25"></path>
      <path d="M452.322 1971.764a2.276 2.276 0 112.275-2.277 2.275 2.275 0 01-2.275 2.277z" fill="#fff" stroke="#fff"></path>
      <path d="M447.518 1911.654h9.607a.551.551 0 110 1.1h-9.607a.551.551 0 010-1.1z" stroke-width="2" fill="#fff" stroke-miterlimit="10" stroke="#fff"></path>
    </g>
  </symbol>
  <symbol xmlns="http://www.w3.org/2000/svg" viewBox="0 0 92 92" id="live-learning">
    <g transform="translate(-917 -1895)">
      <circle cx="46" cy="46" r="46" transform="translate(917 1895)" fill="#da3467"></circle>
      <path d="M971.394 1916.469c-.232-1.26-2.226-4.566-4.81-5.1-4.333 5.008-11.236-1.7-12.738 4.572m10.464 8.356a2.739 2.739 0 01-3.379 0m4.8-6.7v.938m-6.225-.938v.938m10.373 14.073l.128.02c2.1 1.473 8.583 2.9 10.315 3.254 1.9.39 4.171 1.708 4.171 3.983v1.022l-1.057 11.811m-24.282.032l2.279-13.977-1.932-5.045h6.233l-1.93 5.045 2.215 13.977m-24.225-.041l-1.057-11.811v-1.022c0-2.278 2.274-3.593 4.171-3.983 1.733-.355 8.217-1.781 10.315-3.254l.128-.02m14.587-10.173c-1.166 4.1-4.34 7.09-7.356 7.239-3.026-.149-6.21-3.156-7.367-7.278l-.571.09a1.193 1.193 0 01-1.355-1l-.558-3.646a1.2 1.2 0 01.99-1.374l.406-.064a6 6 0 01-.279-1.81v-1.342a5.949 5.949 0 015.89-5.972h.7a.75.75 0 01.043-.32c.362-.968 2.778-.937 5.4.067a13.34 13.34 0 011.548.71 6 6 0 013.635 5.515v1.342a6 6 0 01-.278 1.81l.4.064a1.2 1.2 0 01.991 1.374l-.559 3.646a1.193 1.193 0 01-1.355 1zm24.992 42.079h-64.636c-.518 0-1.291-.477-.994-.887l6.795-9.338m59.834 9.338c.306.39-.46.887-.994.887m-5.8-10.224l6.792 9.338m-19.44-45.6h10.4a2.639 2.639 0 012.662 2.593v30.912a2.643 2.643 0 01-2.662 2.593h-48.56a2.656 2.656 0 01-2.661-2.593m53.883 0a2.656 2.656 0 01-2.661 2.593H938.33a2.643 2.643 0 01-2.662-2.593v-30.918a2.635 2.635 0 012.662-2.593h10.476" fill="none" stroke="#fff" stroke-linecap="round" stroke-linejoin="round" stroke-width="2.25"></path>
    </g>
  </symbol>
  <symbol xmlns="http://www.w3.org/2000/svg" viewBox="0 0 84.97 57.074" id="leadershipdevelopment">
    <path d="M17.338 25.495c5.009-.154 9.077-4.669 9.077-10.076s-4.068-9.194-9.077-8.458-9.081 5.238-9.081 10.069a8.6 8.6 0 009.081 8.465zm7.88 3.832a15.428 15.428 0 00-7.88-1.98C8.316 27.519 1 33.912 1 41.632a13.389 13.389 0 001.68 6.369c4.694.978 9.564 1.809 14.554 2.44a21.588 21.588 0 01-.355-3.915 22.235 22.235 0 018.339-17.199zm17.293-4.859A11.754 11.754 0 0054.272 12.73 11.743 11.743 0 0042.511 1a11.743 11.743 0 00-11.756 11.73 11.754 11.754 0 0011.756 11.738zm21.161 22.059c0-10.888-9.476-19.713-21.161-19.713s-21.146 8.824-21.146 19.712a18.5 18.5 0 002.169 8.7 212.131 212.131 0 0037.958 0 18.42 18.42 0 002.178-8.7zm13.039-30.808c0-4.831-4.068-9.334-9.081-10.069s-9.077 3.046-9.077 8.458 4.068 9.922 9.077 10.076a8.6 8.6 0 009.081-8.465zm-8.622 29.5a21.588 21.588 0 01-.355 3.915c4.99-.631 9.86-1.462 14.554-2.44a13.389 13.389 0 001.68-6.369c0-7.72-7.316-14.113-16.338-14.285a15.428 15.428 0 00-7.88 1.98 22.235 22.235 0 018.341 17.195z" fill="none" stroke="#ff5246" stroke-linecap="round" stroke-linejoin="round" stroke-width="2"></path>
  </symbol>
  <symbol xmlns="http://www.w3.org/2000/svg" viewBox="0 0 92 92" id="ebooks">
    <g transform="translate(-674 -1895)">
      <circle cx="46" cy="46" r="46" transform="translate(674 1895)" fill="#da3467"></circle>
      <path d="M735.349 1914.646a3.221 3.221 0 00-3.215-3.216h-34.43a3.22 3.22 0 00-3.214 3.216l.015 51.724a3.219 3.219 0 003.214 3.216h34.43a3.219 3.219 0 003.215-3.216zm-36.07 45.854v-39.349h31.659v39.349z" fill="none" stroke="#fff" stroke-miterlimit="10" stroke-width="2"></path>
      <path d="M714.927 1967.791a2.719 2.719 0 112.719-2.719 2.722 2.722 0 01-2.719 2.719zm-2.243-52.55h4.49a.909.909 0 010 1.818h-4.49a.909.909 0 010-1.818zm14.938 8.961h14.025v32.434h-14.025z" fill="#da3467"></path>
      <path d="M754.017 1928.144h-2.65v-.9a.78.78 0 00-.561-.779 21.958 21.958 0 00-5.62-.721c-3.118 0-7.366.7-10.507 3.9-3.118-3.23-7.397-3.9-10.504-3.9a21.959 21.959 0 00-5.62.717.779.779 0 00-.561.779v.9h-2.63a.78.78 0 00-.779.779v24.9a.778.778 0 001.161.678c.078-.039 7.872-4.3 18.753-1.559h.187a.784.784 0 00.187 0c10.912-2.767 18.706 1.489 18.753 1.559a.779.779 0 001.169-.67v-24.903a.779.779 0 00-.778-.78zm-37.873 24.428v-22.868h1.863v19.548a.779.779 0 00.771.788.749.749 0 00.126-.009 34.1 34.1 0 014.871-.387 20.206 20.206 0 016.656 1 28.657 28.657 0 00-14.287 1.928zm7.631-4.481a34.26 34.26 0 00-4.24.273v-20.508a21.494 21.494 0 014.622-.515c2.915 0 6.937.67 9.727 3.819l.023 19.416c-1.621-1.059-4.785-2.485-10.132-2.485zm11.691-16.93c2.791-3.117 6.809-3.817 9.727-3.817a21.567 21.567 0 014.622.515v20.504a34.267 34.267 0 00-4.217-.281c-5.315 0-8.488 1.426-10.133 2.486zm17.763 21.411a28.661 28.661 0 00-14.318-1.928 20.268 20.268 0 016.688-1 34.126 34.126 0 014.9.382.779.779 0 00.888-.653.8.8 0 00.009-.126v-19.543h1.863z" fill="#fff"></path>
      <path d="M731.891 1935.31a.454.454 0 01-.291-.106c-3.441-2.867-9.888-1.736-9.952-1.724a.457.457 0 11-.163-.9c.282-.051 6.934-1.217 10.7 1.92a.456.456 0 01-.292.805zm0 3.037a.454.454 0 01-.291-.106c-3.441-2.868-9.888-1.736-9.952-1.724a.457.457 0 11-.163-.9c.282-.051 6.934-1.217 10.7 1.92a.456.456 0 01-.292.805zm0 3.037a.454.454 0 01-.291-.106c-3.441-2.867-9.888-1.736-9.952-1.724a.457.457 0 11-.163-.9c.282-.051 6.934-1.217 10.7 1.92a.456.456 0 01-.292.805zm0 3.036a.454.454 0 01-.291-.106c-3.441-2.867-9.888-1.736-9.952-1.724a.457.457 0 11-.163-.9c.282-.051 6.934-1.217 10.7 1.92a.456.456 0 01-.292.805zm5.466-9.11a.456.456 0 01-.292-.805c3.765-3.137 10.417-1.972 10.7-1.92a.457.457 0 01-.163.9c-.065-.012-6.517-1.139-9.952 1.724a.454.454 0 01-.293.101zm0 3.038a.456.456 0 01-.292-.805c3.765-3.137 10.417-1.972 10.7-1.92a.457.457 0 01-.163.9c-.065-.012-6.517-1.139-9.952 1.724a.454.454 0 01-.293.101zm0 3.036a.456.456 0 01-.292-.805c3.765-3.137 10.417-1.972 10.7-1.92a.457.457 0 01-.163.9c-.065-.012-6.517-1.139-9.952 1.724a.454.454 0 01-.293.101zm0 3.037a.456.456 0 01-.292-.805c3.765-3.137 10.417-1.972 10.7-1.92a.457.457 0 01-.163.9c-.065-.012-6.517-1.139-9.952 1.724a.454.454 0 01-.293.101z" fill="#fff"></path>
    </g>
  </symbol>
  <symbol xmlns="http://www.w3.org/2000/svg" viewBox="0 0 46.873 62.246" id="compliance">
    <path d="M19.985 47.329h6.9v-8.135h8.135v-6.9h-8.135v-8.135h-6.9v8.135h-8.134v6.9h8.134z" fill="#ff5246"></path>
    <path d="M11.073 8.079H4.686A4.69 4.69 0 000 12.764v44.8a4.692 4.692 0 004.686 4.686h37.5a4.692 4.692 0 004.686-4.686v-44.8a4.69 4.69 0 00-4.686-4.685h-6.387v-.485a2.124 2.124 0 00-2.121-2.123h-4.449l-.038-.333A5.785 5.785 0 0023.435 0a5.784 5.784 0 00-5.755 5.138l-.038.333h-4.448a2.124 2.124 0 00-2.121 2.123zM35.8 9.927h6.387a2.839 2.839 0 012.837 2.837v44.8a2.841 2.841 0 01-2.837 2.838h-37.5a2.841 2.841 0 01-2.837-2.838v-44.8a2.84 2.84 0 012.837-2.837h6.387v1.852H7.027a2.746 2.746 0 00-2.742 2.743v40.7a2.747 2.747 0 002.742 2.743h32.817a2.746 2.746 0 002.741-2.743v-40.7a2.745 2.745 0 00-2.741-2.743h-4.047zM12.508 7.593a.687.687 0 01.686-.688h4.958a.94.94 0 00.672-.285.932.932 0 00.262-.68l-.007-.12a4.368 4.368 0 014.357-4.387 4.329 4.329 0 013.081 1.278 4.331 4.331 0 011.277 3.084l-.008.154a.929.929 0 00.267.674.94.94 0 00.669.282h4.957a.688.688 0 01.687.688v7.343a.688.688 0 01-.687.687H13.194a.687.687 0 01-.686-.687zm.686 9.465h20.485a2.124 2.124 0 002.121-2.122v-1.722h4.044a1.31 1.31 0 011.308 1.308v40.7a1.311 1.311 0 01-1.308 1.309H7.026a1.311 1.311 0 01-1.308-1.309v-40.7a1.31 1.31 0 011.308-1.308h4.047v1.722a2.124 2.124 0 002.121 2.122z" fill="#ff5246"></path>
    <path d="M15.079 11.555h16.596v1.747H15.079z" fill="#ff5246"></path>
  </symbol>
</svg>